<mxfile host="app.diagrams.net" modified="2024-04-24T06:53:24.130Z" agent="Mozilla/5.0 (Windows NT 10.0; Win64; x64) AppleWebKit/537.36 (KHTML, like Gecko) Chrome/124.0.0.0 Safari/537.36" version="24.2.8" etag="HsYABqx1-G6aitOFY9wV" type="github">
  <diagram name="Page-1" id="wWcwT-5MTeHKDNxYu9E8">
    <mxGraphModel>
      <root>
        <mxCell id="0" />
        <mxCell id="1" parent="0" />
      </root>
    </mxGraphModel>
  </diagram>
</mxfile>
